<svg width="40" height="40" viewBox="0 0 40 40" fill="none" xmlns="http://www.w3.org/2000/svg">
  <path d="M20 8C20 8 14 8 12 13C10 16 11 19 13 21C11 22 9 24 10 27C11 30 14 31 17 30C17.5 32 19 33 21 33C23 33 24.5 32 25 30C28 31 31 30 32 27C33 24 31 22 29 21C31 19 32 16 30 13C28 8 24 8 20 8Z" stroke="#1B3A9E" stroke-width="2.2" stroke-linecap="round" stroke-linejoin="round" fill="none"/>
  <path d="M20 8V33" stroke="#1B3A9E" stroke-width="1.8" stroke-linecap="round"/>
  <path d="M13 21C16 20 18 21 20 20" stroke="#1B3A9E" stroke-width="1.5" stroke-linecap="round"/>
  <path d="M27 21C24 20 22 21 20 20" stroke="#1B3A9E" stroke-width="1.5" stroke-linecap="round"/>
</svg>